HIERARCHY
ROOT ui
{
	 OFFSET 0 0 0
	 CHANNELS 3 XPosition YPosition Z Position
	 EndSite
	 {
	 OFFSET 0 -1 0
	 }
}
ROOT li
{
	 OFFSET 0 0 0
	 CHANNELS 3 XPosition YPosition Z Position
	 EndSite
	 {
	 OFFSET 0 -1 0
	 }
}
ROOT ul
{
	 OFFSET 0 0 0
	 CHANNELS 3 XPosition YPosition Z Position
	 EndSite
	 {
	 OFFSET 0 -1 0
	 }
}
ROOT ll
{
	 OFFSET 0 0 0
	 CHANNELS 3 XPosition YPosition Z Position
	 EndSite
	 {
	 OFFSET 0 -1 0
	 }
}
ROOT tt
{
	 OFFSET 0 0 0
	 CHANNELS 3 XPosition YPosition Z Position
	 EndSite
	 {
	 OFFSET 0 -1 0
	 }
}
ROOT tb
{
	 OFFSET 0 0 0
	 CHANNELS 3 XPosition YPosition Z Position
	 EndSite
	 {
	 OFFSET 0 -1 0
	 }
}
ROOT td
{
	 OFFSET 0 0 0
	 CHANNELS 3 XPosition YPosition Z Position
	 EndSite
	 {
	 OFFSET 0 -1 0
	 }
}
ROOT v
{
	 OFFSET 0 0 0
	 CHANNELS 3 XPosition YPosition Z Position
	 EndSite
	 {
	 OFFSET 0 -1 0
	 }
}
ROOT bn
{
	 OFFSET 0 0 0
	 CHANNELS 3 XPosition YPosition Z Position
	 EndSite
	 {
	 OFFSET 0 -1 0
	 }
}
MOTION
Frames: 32
Frame Time: 0.002
0.0013374439477920532	1.8896199762821197E-4	0		0.48972396850585936	-2.39601025390625	0		-1.112704833984375	0.059382186889648435	0		-0.6117958984375	-2.863170654296875	0		1.7001441650390625	-0.779790283203125	0		3.19207470703125	0.05566978073120117	0		4.78088623046875	0.1810601043701172	0		5.721302734375	0.21300062561035157	0		-0.15545726013183594	5.93848828125	0		
0.0270849666595459	-5.699200034141541E-4	0		0.5088023071289063	-2.388596923828125	0		-1.11701513671875	0.05613971328735352	0		-0.6457532348632813	-2.85878369140625	0		1.6640587158203124	-0.7741990356445313	0		3.211077392578125	0.06827454376220703	0		4.784486328125	0.17407958984375	0		5.71701123046875	0.23251181030273438	0		-0.1713032989501953	5.929533203125	0		
-0.004047386169433594	0.004806519985198975	0		0.48076223754882813	-2.387244384765625	0		-1.1172564697265626	0.05582196807861328	0		-0.5887562866210938	-2.858194580078125	0		1.6966927490234376	-0.7839671630859375	0		3.186721435546875	0.06274398040771484	0		4.786255859375	0.17514697265625	0		5.7138837890625	0.21910694885253906	0		-0.17196746826171874	5.92928369140625	0		
0.022546586990356447	-0.004953907012939453	0		0.5305438842773438	-2.396423095703125	0		-1.117483642578125	0.05551130294799805	0		-0.6596611328125	-2.85206982421875	0		1.6496336669921876	-0.7781502075195312	0		3.19251220703125	0.06362529754638672	0		4.78400048828125	0.17430158996582032	0		5.710279296875	0.23342337036132813	0		-0.17163809204101563	5.928021484375	0		
4.218829870223999E-4	-7.428990006446838E-4	0		0.478615966796875	-2.390587158203125	0		-1.1176954345703125	0.05520967102050781	0		-0.6118897094726562	-2.8642783203125	0		1.6604991455078124	-0.7774696044921875	0		3.20010205078125	0.0534774169921875	0		4.78862255859375	0.16632621765136718	0		5.71359228515625	0.21973471069335937	0		-0.15709690856933595	5.93649169921875	0		
2.2850799560546875E-4	-9.543439745903015E-4	0		0.4837273254394531	-2.38386376953125	0		-1.176998779296875	0.050074031829833984	0		-0.6406992797851563	-2.8549677734375	0		1.663418701171875	-0.774623046875	0		3.20341259765625	0.07942836761474609	0		4.78357470703125	0.1745492401123047	0		5.71642529296875	0.2337632598876953	0		-0.17190252685546875	5.92654443359375	0		
0.0041241879463195805	0.0027674570083618165	0		0.4837103576660156	-2.384030029296875	0		-1.1140203857421875	0.057564033508300784	0		-0.5836360473632812	-2.85332275390625	0		1.6632906494140625	-0.7747077026367187	0		3.19076025390625	0.05568838882446289	0		4.78539990234375	0.17564083862304689	0		5.70742626953125	0.1947173309326172	0		-0.17445393371582033	5.92837158203125	0		
-1.2577000260353087E-4	-0.0013394769430160522	0		0.5065565795898438	-2.391628662109375	0		-1.118254638671875	0.05438217163085937	0		-0.6555657958984376	-2.850149658203125	0		1.64350341796875	-0.7573970336914062	0		3.185720458984375	0.06281179809570313	0		4.78006103515625	0.16787367248535157	0		5.70318359375	0.21427830505371093	0		-0.17502305603027343	5.92817431640625	0		
-0.0051956110000610355	0.0035863640308380126	0		0.5045037536621094	-2.39372705078125	0		-1.1184256591796875	0.054140594482421874	0		-0.5547827758789062	-2.863314208984375	0		1.6782615966796874	-0.7641380004882813	0		3.20540966796875	0.055460033416748045	0		4.785765625	0.16189474487304686	0		5.70496240234375	0.1833755645751953	0		-0.1745897979736328	5.92697412109375	0		
-4.590199887752533E-4	-0.001662276029586792	0		0.48058392333984373	-2.38838720703125	0		-1.1185948486328126	0.05392003631591797	0		-0.6447197265625	-2.8597646484375	0		1.6598753662109376	-0.7778392333984375	0		3.189648681640625	0.07680622100830078	0		4.78284130859375	0.17508737182617187	0		5.70708740234375	0.19571144104003907	0		-0.17511468505859376	5.926810546875	0		
-6.25814974308014E-4	-0.0017965350151062012	0		0.5085274963378906	-2.39003271484375	0		-1.1187647705078125	0.05372262191772461	0		-0.606712890625	-2.85966650390625	0		1.6569453125	-0.7678238525390625	0		3.199033203125	0.053664051055908206	0		4.79266259765625	0.17503092956542968	0		5.7028466796875	0.2152581024169922	0		-0.16238792419433593	5.93841455078125	0		
0.0014336069822311402	0.010048460006713868	0		0.4835809326171875	-2.38464208984375	0		-1.1148812255859375	0.05647316360473633	0		-0.6504590454101562	-2.844970703125	0		1.689904296875	-0.7634866943359375	0		3.203127685546875	0.06763553619384766	0		4.77450537109375	0.17650917053222656	0		5.6963544921875	0.22105274963378907	0		-0.17609292602539062	5.92654296875	0		
-9.727450013160705E-4	-0.0020046579837799073	0		0.532313720703125	-2.3956494140625	0		-1.1191170654296876	0.05340528869628906	0		-0.608818603515625	-2.86189501953125	0		1.6449241943359374	-0.754642822265625	0		3.18485546875	0.06303473281860351	0		4.780205078125	0.1705215606689453	0		5.69968896484375	0.20733697509765625	0		-0.310919677734375	5.908009765625	0		
-0.006061299800872803	0.0030171279907226563	0		0.47829150390625	-2.391670166015625	0		-1.11930419921875	0.05328784942626953	0		-0.6197154541015625	-2.85278369140625	0		1.680667236328125	-0.7603364868164062	0		3.17378466796875	0.06929813385009766	0		4.77897509765625	0.16865911865234376	0		5.6931435546875	0.20789845275878907	0		-0.17794471740722656	5.92738037109375	0		
-0.006256776809692383	0.0029645919799804687	0		0.5061718139648438	-2.392240234375	0		-1.11950146484375	0.05319770812988281	0		-0.6547509155273438	-2.849190185546875	0		1.6425426025390626	-0.7576079711914062	0		3.207256591796875	0.051707881927490235	0		4.78675341796875	0.16761587524414062	0		5.69300830078125	0.2081373291015625	0		-0.16120993041992188	5.93399658203125	0		
0.002515839099884033	0.0017603470087051393	0		0.46705783081054686	-2.390516845703125	0		-1.1156531982421876	0.05605697250366211	0		-0.6379385375976563	-2.852564453125	0		1.65335498046875	-0.7578046264648437	0		3.1866044921875	0.08115866851806641	0		4.7816953125	0.1758097839355469	0		5.6992822265625	0.20805511474609376	0		-0.16354312133789062	5.9359970703125	0		
0.005354228973388672	0.004687685012817383	0		0.5369367065429688	-2.388853271484375	0		-1.1158724365234376	0.056017295837402344	0		-0.6129652709960938	-2.8460703125	0		1.647287841796875	-0.7506705322265625	0		3.173911376953125	0.05644635009765625	0		4.7834921875	0.17686164855957032	0		5.69616748046875	0.1945378875732422	0		-0.3124544982910156	5.90779833984375	0		
-0.00691135311126709	0.002916408061981201	0		0.47192926025390625	-2.37861083984375	0		-1.1201593017578124	0.0530756721496582	0		-0.6172041625976562	-2.849003662109375	0		1.6829500732421876	-0.757325927734375	0		3.172927978515625	0.06951576232910156	0		4.76914794921875	0.1712080841064453	0		5.69305859375	0.18272340393066405	0		-0.192613525390625	5.91551171875	0		
-0.002248748064041138	-0.0021651089191436768	0		0.5314012451171874	-2.39572900390625	0		-1.1204014892578125	0.05307502365112305	0		-0.653386474609375	-2.84731494140625	0		1.6417059326171874	-0.7575147705078125	0		3.192530029296875	0.06118759536743164	0		4.77375146484375	0.16318359375	0		5.6781962890625	0.21987376403808595	0		-0.17969952392578126	5.92727294921875	0		
-0.005558251857757568	-0.005086238861083984	0		0.47929098510742185	-2.38871728515625	0		-1.120655029296875	0.05308727264404297	0		-0.6176417846679687	-2.84898193359375	0		1.641458984375	-0.7574799194335937	0		3.176677734375	0.08253499603271484	0		4.7776103515625	0.16916705322265624	0		5.69270849609375	0.18297732543945314	0		-0.17902027893066405	5.92627392578125	0		
-0.002765368938446045	-0.002116697072982788	0		0.481078369140625	-2.386725830078125	0		-1.1168626708984375	0.05603160858154297	0		-0.6369239501953124	-2.850597412109375	0		1.6432562255859375	-0.754482177734375	0		3.19510693359375	0.06622216796875	0		4.77661181640625	0.18323724365234376	0		5.69252099609375	0.1830785675048828	0		-0.17931690979003906	5.92630029296875	0		
-0.0030370869636535645	-0.0020865159034729004	0		0.5067544860839843	-2.3901865234375	0		-1.1211907958984375	0.05313381576538086	0		-0.5693294067382813	-2.8588583984375	0		1.642987548828125	-0.754445556640625	0		3.2049658203125	0.07307400512695313	0		4.7770732421875	0.16926982116699218	0		5.68109326171875	0.20618028259277343	0		-0.17961199951171875	5.92632958984375	0		
0.02268098831176758	-0.002548027992248535	0		0.530385498046875	-2.395607666015625	0		-1.12146826171875	0.05316193771362305	0		-0.6163807373046875	-2.846939208984375	0		1.6427125244140626	-0.7544088134765625	0		3.1897099609375	0.07439990234375	0		4.7767958984375	0.16931629943847656	0		5.680896484375	0.20626522827148439	0		-0.1808885498046875	5.92737939453125	0		
-0.008499466896057128	0.0030708110332489016	0		0.50417333984375	-2.392081787109375	0		-1.047781494140625	0.0507873420715332	0		-0.5498358154296875	-2.85717822265625	0		1.67525732421875	-0.7639962768554688	0		3.17133740234375	0.06978341674804688	0		4.77651416015625	0.16936228942871093	0		5.6806962890625	0.20634912109375	0		-0.18020614624023437	5.92639208984375	0		
-0.00693528699874878	-0.004934609889984131	0		0.47795916748046874	-2.388556396484375	0		-1.122033203125	0.05321773529052734	0		-0.6518641357421875	-2.843217041015625	0		1.64009619140625	-0.7572969970703125	0		3.184880126953125	0.06056138610839844	0		4.77421142578125	0.1684475860595703	0		5.67408984375	0.20846055603027344	0		-0.16436109924316405	5.93411767578125	0		
-8.999499678611756E-5	0.001961027979850769	0		0.4827957458496094	-2.382620849609375	0		-1.1113594970703125	0.0510345458984375	0		-0.6012803344726563	-2.85115576171875	0		1.650811279296875	-0.7574691162109375	0		3.19295263671875	0.0794491424560547	0		4.78907373046875	0.17621121215820312	0		5.68029052734375	0.20652719116210938	0		-0.16565272521972657	5.93516552734375	0		
-3.771739900112152E-4	0.0019885740280151365	0		0.4825206298828125	-2.3825908203125	0		-1.1226070556640626	0.05326456832885742	0		-0.6473174438476562	-2.83826171875	0		1.64466162109375	-0.75032080078125	0		3.164442626953125	0.06802559661865235	0		4.7708076171875	0.17760389709472657	0		5.68008642578125	0.20662399291992187	0		-0.18113775634765625	5.92647802734375	0		
0.021256553649902345	-0.0024026119709014892	0		0.505111328125	-2.38999755859375	0		-1.122893798828125	0.05328286361694336	0		-0.5797510986328125	-2.84752734375	0		1.64130419921875	-0.7542286987304687	0		3.1841708984375	0.0686899642944336	0		4.7812529296875	0.1634508819580078	0		5.67470166015625	0.18273779296875	0		-0.18243991088867187	5.9275205078125	0		
-0.005024128913879394	-0.001888524055480957	0		0.47686520385742187	-2.388442626953125	0		-1.1231795654296874	0.0532972412109375	0		-0.6159928588867187	-2.845827880859375	0		1.63589208984375	-0.7611007080078125	0		3.174754150390625	0.061903587341308595	0		4.7750810546875	0.16961557006835937	0		5.6774462890625	0.19481398010253906	0		-0.1817823028564453	5.92652197265625	0		
-0.005309338092803955	-0.0018707549571990968	0		0.5025342712402344	-2.391913330078125	0		-1.123465087890625	0.05330764389038086	0		-0.6152216186523437	-2.84383349609375	0		1.63868701171875	-0.757129638671875	0		3.18886376953125	0.08267350006103516	0		4.774794921875	0.1696648406982422	0		5.6772431640625	0.1949087677001953	0		-0.30029367065429685	5.91777490234375	0		
-0.0055958771705627445	-0.0018567359447479248	0		0.4783625183105469	-2.386442626953125	0		-1.1237520751953125	0.05331424331665039	0		-0.6365422973632813	-2.846425537109375	0		1.6404619140625	-0.7541431274414062	0		3.177294677734375	0.06791957855224609	0		4.77763916015625	0.17665254211425782	0		5.67703955078125	0.19499754333496094	0		-0.18243246459960938	5.9265517578125	0		
-0.006732754230499268	0.006171378135681152	0		0.5320241088867188	-2.39044970703125	0		-1.124040771484375	0.05331716537475586	0		-0.6116831665039062	-2.8398935546875	0		1.6401787109375	-0.7541211547851563	0		3.217112060546875	0.07319434356689453	0		4.7652568359375	0.17192405700683594	0		5.6738876953125	0.18310601806640625	0		-0.18276171875	5.92656103515625	0		
